:SAMPLES-PER-SECOND 30
:FRAME-RANGE 1-1770
:FULLY-SPECIFIED
:DEGREES
1328
root  18.7172 36.8046 98.6258 1.4354 33.7553 -4.87042
RightUpLeg  -27.83 9.56759 -2.70012
RightLeg  30.826 0.831964 0.295063
RightFoot  -5.87824 -0.491155 9.43327
RightToes  -1.33073e-015 0 -3.6325e-017
Spine  3.95181 1.73928 8.19711
Spine1  6.55046 3.08387 -2.97774
HEad  6.76093 53.7123 -14.8745
LeftShoulder1  1.53621 -2.82789 -18.7521
LeftArm  14.7265 -20.632 -67.069
LeftForeArm  39.2342 -8.76253 -11.9307
LeftHand  -0.156205 2.43442 5.76618
RightShoulder  1.97971 3.53912 22.7586
RightArm  -30.459 -0.314122 38.8752
RightForeArm  68.5718 -4.81934 0.307828
RightHand  0.323526 -7.89062 -15.9102
LeftUpLeg  -14.5571 -15.4584 8.19638
LeftLeg  57.7178 -7.898 -12.7291
LeftFoot  -5.0938 0.561289 -9.7097
LeftToes  1.09107e-011 -1.16422e-010 2.98337e-011
1329
root  19.0681 37.2241 99.1863 2.45604 35.1586 -4.16431
RightUpLeg  -25.7213 8.01211 -3.05349
RightLeg  28.1351 0.672561 0.156284
RightFoot  -5.69926 -0.484957 9.03435
RightToes  -1.33073e-015 0 -3.6325e-017
Spine  2.74843 1.55438 8.4085
Spine1  6.49652 2.82898 -3.10686
HEad  5.84189 55.1121 -16.555
LeftShoulder1  1.50252 -2.5906 -19.2216
LeftArm  11.0262 -18.2324 -65.6865
LeftForeArm  43.5384 -4.19744 -13.2216
LeftHand  0.00780231 6.88781 3.19137
RightShoulder  1.97076 3.57425 22.4636
RightArm  -28.4618 0.399224 38.9375
RightForeArm  67.1258 -5.09238 1.59312
RightHand  0.161485 -6.83137 -14.5519
LeftUpLeg  -14.6248 -12.7183 7.72761
LeftLeg  55.5314 -7.11269 -10.5206
LeftFoot  -3.9935 0.660016 -9.88925
LeftToes  1.09107e-011 -1.16422e-010 2.98337e-011
1330
root  19.4067 37.5611 99.6784 3.40286 36.5774 -3.24609
RightUpLeg  -23.8099 5.79822 -3.55823
RightLeg  26.043 1.32868 0.47867
RightFoot  -5.66461 -0.458403 8.4515
RightToes  -1.33073e-015 0 -3.6325e-017
Spine  1.79532 1.44142 8.22498
Spine1  6.569 2.5982 -3.02462
HEad  3.5901 55.2105 -19.3169
LeftShoulder1  1.43613 -2.14818 -20.1329
LeftArm  10.2159 -15.2106 -63.6792
LeftForeArm  44.1082 -2.04115 -13.8245
LeftHand  -0.00679046 6.95685 2.10223
RightShoulder  1.93601 3.50229 22.2401
RightArm  -25.6549 1.44307 38.9224
RightForeArm  64.4522 -5.46974 3.25226
RightHand  0.181325 -6.84552 -15.8494
LeftUpLeg  -14.3806 -8.61552 7.22603
LeftLeg  52.7659 -5.58894 -7.38192
LeftFoot  -4.9177 0.567061 -9.56497
LeftToes  1.09107e-011 -1.16422e-010 2.98337e-011
1331
root  19.7351 37.8537 100.092 4.31223 38.3879 -2.35571
RightUpLeg  -21.9931 3.22312 -4.10899
RightLeg  24.0811 1.92589 0.717773
RightFoot  -5.59689 -0.444025 8.07606
RightToes  -1.33073e-015 0 -3.6325e-017
Spine  1.18301 1.20443 7.92156
Spine1  6.3452 2.17089 -2.67883
HEad  1.70402 55.3364 -21.7778
LeftShoulder1  1.29713 -1.34322 -21.8049
LeftArm  7.58094 -12.222 -60.9041
LeftForeArm  43.5925 0.559111 -14.0308
LeftHand  0.00282418 6.8522 2.89125
RightShoulder  1.96602 3.66771 21.9836
RightArm  -22.7277 2.69156 38.9094
RightForeArm  61.6875 -5.83005 4.83239
RightHand  0.188303 -6.71935 -17.7106
LeftUpLeg  -14.1297 -3.69049 7.00444
LeftLeg  49.3718 -4.30951 -4.93086
LeftFoot  -6.63811 0.403443 -8.84451
LeftToes  1.09107e-011 -1.16422e-010 2.98337e-011
1332
root  20.0162 38.09 100.42 5.34981 40.9525 -1.34088
RightUpLeg  -20.2594 1.1746 -4.87222
RightLeg  22.2333 1.35252 0.388083
RightFoot  -5.73408 -0.439578 8.16401
RightToes  -1.33073e-015 0 -3.6325e-017
Spine  0.513116 0.990633 7.55101
Spine1  6.35821 1.82937 -2.59866
HEad  0.209278 54.8988 -23.4983
LeftShoulder1  1.25241 -1.00536 -23.0221
LeftArm  4.04757 -9.22987 -58.3209
LeftForeArm  43.2352 2.46197 -13.6742
LeftHand  0.0112002 6.95025 3.32594
RightShoulder  1.94946 3.60343 22.006
RightArm  -22.9706 3.71092 39.4244
RightForeArm  61.4561 -4.05146 4.86551
RightHand  0.140268 -6.28556 -19.6528
LeftUpLeg  -14.2403 1.51611 6.951
LeftLeg  45.7109 -3.8488 -3.80575
LeftFoot  -8.44214 0.270812 -8.69393
LeftToes  1.09107e-011 -1.16422e-010 2.98337e-011
1333
root  20.3116 38.3381 100.63 6.7987 44.0115 0.16922
RightUpLeg  -18.6712 -1.49023 -6.07747
RightLeg  20.5298 0.95936 0.181069
RightFoot  -5.5483 -0.471345 8.55212
RightToes  -1.33073e-015 0 -3.6325e-017
Spine  -0.105323 0.908114 7.27863
Spine1  6.46287 1.7097 -2.8827
HEad  -0.148084 54.073 -24.108
LeftShoulder1  1.24839 -0.857078 -24.0105
LeftArm  2.18204 -7.36447 -56.2023
LeftForeArm  40.5845 4.856 -13.5538
LeftHand  -0.00429256 6.48354 2.91252
RightShoulder  1.88982 3.44281 21.775
RightArm  -22.9238 4.74434 39.7041
RightForeArm  59.0935 -1.91721 5.19754
RightHand  -0.0530772 -5.14251 -20.3174
LeftUpLeg  -14.5186 6.25081 6.42311
LeftLeg  41.4353 -2.94963 -2.39848
LeftFoot  -9.66525 0.19468 -9.34251
LeftToes  1.09107e-011 -1.16422e-010 2.98337e-011
